<?xml version="1.0" standalone="no"?>
<!DOCTYPE svg PUBLIC "-//W3C//DTD SVG 20010904//EN"
 "http://www.w3.org/TR/2001/REC-SVG-20010904/DTD/svg10.dtd">
<svg version="1.0" xmlns="http://www.w3.org/2000/svg"
 width="550.000000pt" height="429.000000pt" viewBox="0 0 550.000000 429.000000"
 preserveAspectRatio="xMidYMid meet">

<g transform="translate(0.000000,429.000000) scale(0.100000,-0.100000)"
stroke="currentColor">
<path d="M1935 4080 c-1632 -228 -1532 -210 -1625 -300 -50 -49 -84 -108 -116
-200 -16 -47 -19 -83 -18 -240 1 -158 4 -197 23 -265 28 -105 70 -193 115
-242 20 -22 36 -43 36 -46 0 -2 -12 -8 -27 -11 -16 -4 -71 -20 -124 -37 -102
-31 -125 -51 -108 -95 11 -30 67 -71 123 -90 65 -22 126 -93 155 -180 25 -77
37 -226 27 -325 l-7 -65 -111 -34 c-170 -52 -278 -109 -278 -146 0 -13 34 -28
102 -45 l46 -11 -44 -60 c-63 -85 -94 -191 -101 -338 -8 -188 29 -375 98 -497
33 -57 101 -130 140 -151 13 -7 479 -160 1035 -341 l1012 -328 183 44 c2310
558 2786 674 2799 682 8 4 15 18 15 31 0 33 -89 79 -248 131 -70 23 -130 46
-133 51 -13 21 -5 284 11 342 33 123 83 185 176 220 138 52 158 138 41 172
-31 9 -58 18 -60 19 -2 2 19 25 47 53 112 112 172 304 173 552 0 162 -33 293
-96 375 l-24 31 133 33 c133 32 162 47 152 75 -10 26 -100 70 -242 118 l-140
48 -8 42 c-14 71 -1 265 22 338 31 99 65 138 167 190 48 25 97 57 107 71 17
24 18 30 6 55 -11 22 -27 32 -74 47 -33 10 -337 101 -675 203 -338 102 -726
219 -861 260 -175 53 -259 74 -295 73 -27 -1 -715 -95 -1529 -209z m-1145
-511 c454 -146 1681 -547 1685 -551 4 -4 -17 -642 -21 -647 -4 -5 -128 29
-1159 319 -374 105 -708 198 -741 206 -77 20 -122 56 -156 125 -70 144 -79
428 -17 551 29 58 91 92 144 81 11 -3 130 -40 265 -84z m4204 -128 c-33 -96
-47 -238 -34 -369 5 -58 8 -107 7 -109 -5 -5 -2376 -593 -2391 -593 -10 0 -12
27 -9 123 3 67 8 212 11 322 l7 199 1195 247 c657 136 1205 247 1216 248 l22
1 -24 -69z m30 -830 c65 -41 96 -139 96 -306 0 -169 -36 -303 -98 -368 -43
-46 7 -29 -592 -197 -885 -248 -1136 -318 -1268 -355 -101 -28 -155 -38 -157
-31 -3 10 -24 639 -21 642 1 1 435 144 966 317 547 179 982 316 1004 316 22 1
52 -7 70 -18z m-3989 -241 c297 -61 758 -156 1025 -211 267 -55 558 -115 648
-133 89 -18 164 -35 166 -37 3 -4 25 -642 22 -646 -2 -3 -2396 593 -2401 598
-2 3 1 51 6 108 16 155 -4 304 -56 425 -7 16 -4 18 21 12 16 -3 272 -56 569
-116z m-220 -908 c237 -77 669 -218 960 -313 292 -95 532 -174 534 -175 4 -4
-17 -646 -22 -650 -3 -3 -72 16 -502 136 -339 95 -1365 382 -1412 395 -94 27
-146 94 -180 232 -24 97 -23 320 1 388 35 97 85 139 156 131 19 -2 229 -67
465 -144z m4020 -49 c-36 -91 -49 -196 -42 -357 l6 -142 -1196 -297 c-658
-164 -1198 -295 -1201 -293 -5 6 14 635 20 641 2 3 114 27 249 55 194 41 255
50 297 45 45 -6 70 -1 180 36 95 32 326 84 907 205 429 89 785 162 791 163 7
1 3 -22 -11 -56z"/>
</g>
</svg>
